<svg xmlns="http://www.w3.org/2000/svg" width="34.121" height="38.995" viewBox="0 0 34.121 38.995">
  <path id="solid_bell" data-name="solid bell" d="M17.06,38.995a4.874,4.874,0,0,0,4.872-4.874H12.188A4.874,4.874,0,0,0,17.06,38.995Zm16.4-11.4c-1.471-1.581-4.225-3.96-4.225-11.751A12.027,12.027,0,0,0,19.5,4.024V2.437a2.436,2.436,0,1,0-4.871,0V4.024A12.027,12.027,0,0,0,4.88,15.842c0,7.791-2.753,10.17-4.225,11.751A2.38,2.38,0,0,0,0,29.246a2.439,2.439,0,0,0,2.445,2.437H31.675a2.439,2.439,0,0,0,2.445-2.437A2.378,2.378,0,0,0,33.464,27.593Z" transform="translate(0.001)" fill="#2756c3"/>
</svg>
