<svg xmlns="http://www.w3.org/2000/svg" width="35" height="40" viewBox="0 0 35 40">
  <path id="regular_calendar-alt" data-name="regular calendar-alt" d="M11.562,22.5H8.438a.94.94,0,0,1-.938-.937V18.438a.94.94,0,0,1,.938-.937h3.125a.94.94,0,0,1,.938.937v3.125A.94.94,0,0,1,11.562,22.5ZM20,21.563V18.438a.94.94,0,0,0-.938-.937H15.938a.94.94,0,0,0-.938.937v3.125a.94.94,0,0,0,.938.938h3.125A.94.94,0,0,0,20,21.563Zm7.5,0V18.438a.94.94,0,0,0-.937-.937H23.438a.94.94,0,0,0-.938.937v3.125a.94.94,0,0,0,.938.938h3.125A.94.94,0,0,0,27.5,21.563Zm-7.5,7.5V25.938A.94.94,0,0,0,19.062,25H15.938a.94.94,0,0,0-.938.937v3.125a.94.94,0,0,0,.938.938h3.125A.94.94,0,0,0,20,29.063Zm-7.5,0V25.938A.94.94,0,0,0,11.562,25H8.438a.94.94,0,0,0-.938.937v3.125A.94.94,0,0,0,8.438,30h3.125A.94.94,0,0,0,12.5,29.063Zm15,0V25.938A.94.94,0,0,0,26.563,25H23.438a.94.94,0,0,0-.938.937v3.125a.94.94,0,0,0,.938.938h3.125A.94.94,0,0,0,27.5,29.063ZM35,8.75v27.5A3.751,3.751,0,0,1,31.25,40H3.75A3.751,3.751,0,0,1,0,36.25V8.75A3.751,3.751,0,0,1,3.75,5H7.5V.938A.94.94,0,0,1,8.438,0h3.125A.94.94,0,0,1,12.5.938V5h10V.938A.94.94,0,0,1,23.438,0h3.125A.94.94,0,0,1,27.5.938V5h3.75A3.751,3.751,0,0,1,35,8.75ZM31.25,35.781V12.5H3.75V35.781a.47.47,0,0,0,.469.469H30.781A.47.47,0,0,0,31.25,35.781Z" fill="#2756c3"/>
</svg>
