<svg xmlns="http://www.w3.org/2000/svg" width="17.456" height="17.449" viewBox="0 0 17.456 17.449">
  <path id="Path_145" data-name="Path 145" d="M-562.55,10.137l-.057.281a2.273,2.273,0,0,1-.648,1.177q-2.02,2.014-4.034,4.032c-1.586,1.586-3.18,3.165-4.754,4.762a8.783,8.783,0,0,1-1.687,1.35c-.141.086-.279.177-.419.264a4.894,4.894,0,0,1-2.291.933c-1.141.253-2.28.514-3.42.771-.037.008-.076.01-.146.019.031-.153.055-.289.086-.423.323-1.422.654-2.841.963-4.266a2.829,2.829,0,0,1,.379-.922,11.254,11.254,0,0,1,1.558-1.982q4.542-4.539,9.08-9.082a2.3,2.3,0,0,1,1.42-.738.255.255,0,0,0,.075-.035h.307a.694.694,0,0,0,.128.04,2.073,2.073,0,0,1,1.248.6c.522.515,1.038,1.036,1.556,1.555a2.175,2.175,0,0,1,.6,1.126c.018.087.038.175.057.262Zm-3.739,2.985-3.108-3.108c-.036.033-.091.081-.142.132q-3.352,3.35-6.7,6.7c-.336.338-.626.721-.941,1.08-.089.1-.082.171.017.269.564.555,1.121,1.117,1.681,1.676.318.318.634.638.956.952.038.037.134.07.166.049a7.289,7.289,0,0,0,1.081-.77c2.3-2.277,4.588-4.573,6.879-6.864C-566.357,13.2-566.317,13.152-566.288,13.122Zm.8-.8c.026-.024.069-.06.108-.1q.7-.7,1.4-1.4a1.1,1.1,0,0,0,0-1.627q-.739-.745-1.485-1.485a1.1,1.1,0,0,0-1.639,0q-.7.692-1.389,1.388c-.043.043-.082.088-.105.114ZM-578.616,22.33c.094-.013.145-.017.194-.028.868-.2,1.736-.392,2.6-.6a3.51,3.51,0,0,0,.445-.168l-2.5-2.489Z" transform="translate(580.006 -6.276)" fill="#fff"/>
</svg>
