<svg xmlns="http://www.w3.org/2000/svg" width="24.106" height="24.096" viewBox="0 0 24.106 24.096">
  <path id="Path_145" data-name="Path 145" d="M-555.9,11.607l-.079.388a3.139,3.139,0,0,1-.894,1.625q-2.789,2.781-5.571,5.569c-2.19,2.19-4.391,4.37-6.565,6.576a12.127,12.127,0,0,1-2.33,1.864c-.194.119-.385.244-.578.365a6.759,6.759,0,0,1-3.163,1.289c-1.575.349-3.148.71-4.723,1.065-.052.012-.105.014-.2.026.043-.211.076-.4.118-.584.445-1.963.9-3.923,1.33-5.891a3.907,3.907,0,0,1,.524-1.274,15.547,15.547,0,0,1,2.151-2.738q6.273-6.268,12.539-12.542a3.17,3.17,0,0,1,1.961-1.019.354.354,0,0,0,.1-.049h.425a.957.957,0,0,0,.176.055,2.863,2.863,0,0,1,1.724.834c.72.712,1.434,1.431,2.149,2.148a3,3,0,0,1,.827,1.555c.025.121.052.241.078.362Zm-5.163,4.123-4.292-4.291c-.049.046-.125.112-.2.183q-4.629,4.627-9.252,9.259c-.464.466-.864,1-1.3,1.491-.124.141-.114.236.023.371.779.766,1.548,1.542,2.321,2.315.439.439.875.881,1.32,1.314.052.051.185.1.229.067a10.072,10.072,0,0,0,1.493-1.063c3.181-3.145,6.336-6.316,9.5-9.479C-561.157,15.836-561.1,15.772-561.063,15.73Zm1.106-1.106c.036-.033.095-.083.149-.137q.968-.966,1.934-1.934a1.525,1.525,0,0,0,0-2.247q-1.021-1.029-2.051-2.051a1.526,1.526,0,0,0-2.264,0q-.961.956-1.918,1.916c-.059.059-.113.122-.146.158Zm-18.131,13.822c.129-.018.2-.023.268-.039,1.2-.272,2.4-.541,3.594-.823a4.841,4.841,0,0,0,.615-.232l-3.453-3.438Z" transform="translate(580.006 -6.276)" fill="#2756c3"/>
</svg>
