<svg xmlns="http://www.w3.org/2000/svg" width="21.757" height="14.29" viewBox="0 0 21.757 14.29">
  <path id="Google_" data-name="Google+" d="M0,7.145A7.031,7.031,0,0,1,6.911,0a6.76,6.76,0,0,1,4.649,1.859c-1.445,1.412-1.4,1.5-1.967,2.084A3.847,3.847,0,0,0,6.911,2.9,4.12,4.12,0,0,0,2.874,7.145,4.12,4.12,0,0,0,6.911,11.39c2.24,0,3.15-1,3.736-2.833-1.081,0-3.736,0-3.736,0V5.73h6.637c.462,3.424-.932,8.56-6.637,8.56A7.031,7.031,0,0,1,0,7.145Zm17.653,3.042V7.64H15.189V5.872h2.464V3.4h1.71V5.872h2.394V7.64H19.364v2.547Z" transform="translate(0 0)" fill="#fff"/>
</svg>
