<svg xmlns="http://www.w3.org/2000/svg" xmlns:xlink="http://www.w3.org/1999/xlink" width="63.967" height="63.77" viewBox="0 0 63.967 63.77">
  <defs>
    <linearGradient id="linear-gradient" x1="0.5" x2="0.5" y2="1" gradientUnits="objectBoundingBox">
      <stop offset="0" stop-color="#7e58fe"/>
      <stop offset="0.5" stop-color="#7d57fc"/>
      <stop offset="1" stop-color="#5d36de"/>
    </linearGradient>
  </defs>
  <g id="Group_63" data-name="Group 63" transform="translate(-1779.552 -884.646)">
    <path id="Path_2" data-name="Path 2" d="M1843.519,894.5v29.733a1.086,1.086,0,0,0-.122.3,10.764,10.764,0,0,1-11.161,9.553c-4.551-.081-9.105-.028-13.657,0a2.183,2.183,0,0,0-1.257.451q-8.22,6.6-16.4,13.252c-.219.177-.453.336-.841.621V934.072h-1c-2.943,0-5.885.022-8.828-.006a10.663,10.663,0,0,1-10.66-10.6q-.093-14.11,0-28.222a10.637,10.637,0,0,1,7.7-10.171c.524-.155,1.055-.288,1.583-.432h45.15a4.54,4.54,0,0,0,.472.146,10.545,10.545,0,0,1,8.592,7.766C1843.28,893.191,1843.377,893.853,1843.519,894.5ZM1806.8,934.4c.333-.251.548-.4.752-.568,2.464-1.99,4.915-4,7.4-5.956a2.334,2.334,0,0,1,1.333-.47c5.357-.032,10.715-.018,16.073-.021a4.117,4.117,0,0,0,4.465-4.466q.006-13.568,0-27.137a4.1,4.1,0,0,0-4.459-4.458q-20.82,0-41.641,0c-2.838,0-4.479,1.655-4.48,4.523q0,13.527,0,27.053a4.114,4.114,0,0,0,4.444,4.484q7.537,0,15.074,0h1.037Z" fill="url(#linear-gradient)"/>
    <path id="Path_3" data-name="Path 3" d="M1869.83,1017.122a3.876,3.876,0,1,1,3.9-3.824A3.834,3.834,0,0,1,1869.83,1017.122Z" transform="translate(-72.005 -103.89)" fill="url(#linear-gradient)"/>
    <path id="Path_4" data-name="Path 4" d="M1955.58,1013.242a3.865,3.865,0,1,1-3.846-3.874A3.832,3.832,0,0,1,1955.58,1013.242Z" transform="translate(-140.186 -103.889)" fill="url(#linear-gradient)"/>
    <path id="Path_5" data-name="Path 5" d="M2037.412,1013.278a3.865,3.865,0,1,1-3.81-3.909A3.832,3.832,0,0,1,2037.412,1013.278Z" transform="translate(-208.349 -103.889)" fill="url(#linear-gradient)"/>
  </g>
</svg>
