<svg xmlns="http://www.w3.org/2000/svg" width="34.998" height="40" viewBox="0 0 34.998 40">
  <path id="solid_user-graduate" data-name="solid user-graduate" d="M24.952,25.023,17.5,32.475l-7.453-7.453A10.476,10.476,0,0,0,0,35.475v.75a3.751,3.751,0,0,0,3.75,3.75h27.5A3.751,3.751,0,0,0,35,36.225v-.75A10.476,10.476,0,0,0,24.952,25.023ZM1.062,6.211l.5.117V10.89a1.8,1.8,0,0,0-.07,3.125L.273,18.882c-.133.539.164,1.094.594,1.094H4.133c.43,0,.727-.555.594-1.094L3.508,14.015a1.8,1.8,0,0,0-.07-3.125V6.781L8.593,8.023A9.981,9.981,0,1,0,27.5,12.476,9.821,9.821,0,0,0,26.4,8.023l7.523-1.812a1.243,1.243,0,0,0,0-2.461L19.054.157a6.71,6.71,0,0,0-3.1,0L1.062,3.742A1.249,1.249,0,0,0,1.062,6.211Z" transform="translate(0 0.025)" fill="#2756c3"/>
</svg>
