<svg xmlns="http://www.w3.org/2000/svg" width="17.5" height="15" viewBox="0 0 17.5 15">
  <path id="Twitter" d="M17.017.277a6.944,6.944,0,0,1-2.282.917A3.5,3.5,0,0,0,12.115,0,3.693,3.693,0,0,0,8.526,3.787a3.963,3.963,0,0,0,.093.862A10.024,10.024,0,0,1,1.218.691,3.941,3.941,0,0,0,.732,2.6a3.842,3.842,0,0,0,1.6,3.151A3.451,3.451,0,0,1,.7,5.277v.046A3.742,3.742,0,0,0,3.584,9.036a3.334,3.334,0,0,1-.946.134A3.4,3.4,0,0,1,1.962,9.1,3.621,3.621,0,0,0,5.315,11.73,6.963,6.963,0,0,1,0,13.3,9.8,9.8,0,0,0,5.5,15c6.6,0,10.215-5.769,10.215-10.774,0-.165,0-.329-.009-.491a7.494,7.494,0,0,0,1.79-1.96,6.882,6.882,0,0,1-2.062.6A3.766,3.766,0,0,0,17.017.277" fill="#fff"/>
</svg>
