<svg xmlns="http://www.w3.org/2000/svg" width="40" height="41.784" viewBox="0 0 40 41.784">
  <path id="solid_cog" data-name="solid cog" d="M58.133,34.012,54.544,31.94a16.228,16.228,0,0,0,0-5.914l3.589-2.072a1.018,1.018,0,0,0,.463-1.179A20.981,20.981,0,0,0,53.988,14.8a1.014,1.014,0,0,0-1.247-.194l-3.589,2.072a15.9,15.9,0,0,0-5.122-2.957V9.59a1.009,1.009,0,0,0-.792-.986,21.178,21.178,0,0,0-9.2,0,1.009,1.009,0,0,0-.792.986v4.145a16.4,16.4,0,0,0-5.122,2.957l-3.58-2.072a1,1,0,0,0-1.247.194,20.855,20.855,0,0,0-4.608,7.969,1.008,1.008,0,0,0,.463,1.179l3.589,2.072a16.227,16.227,0,0,0,0,5.914L19.154,34.02a1.018,1.018,0,0,0-.463,1.179A20.981,20.981,0,0,0,23.3,43.169a1.014,1.014,0,0,0,1.247.194l3.589-2.072a15.9,15.9,0,0,0,5.122,2.957v4.145a1.009,1.009,0,0,0,.792.986,21.178,21.178,0,0,0,9.2,0,1.009,1.009,0,0,0,.792-.986V44.248a16.4,16.4,0,0,0,5.122-2.957l3.589,2.072A1,1,0,0,0,54,43.169,20.855,20.855,0,0,0,58.6,35.2,1.04,1.04,0,0,0,58.133,34.012Zm-19.494,1.71a6.739,6.739,0,1,1,6.739-6.739A6.748,6.748,0,0,1,38.639,35.722Z" transform="translate(-18.644 -8.099)" fill="#ffbb02"/>
</svg>
