<svg xmlns="http://www.w3.org/2000/svg" width="21.5" height="21.5" viewBox="0 0 21.5 21.5">
  <path id="regular_user-circle" data-name="regular user-circle" d="M10.75,12.161a4.161,4.161,0,1,0,4.161,4.161A4.162,4.162,0,0,0,10.75,12.161Zm0,6.242a2.081,2.081,0,1,1,2.081-2.081A2.081,2.081,0,0,1,10.75,18.4Zm0-10.4A10.75,10.75,0,1,0,21.5,18.75,10.748,10.748,0,0,0,10.75,8Zm0,19.419a8.62,8.62,0,0,1-5.639-2.1,3.734,3.734,0,0,1,3.017-1.712,8.819,8.819,0,0,0,2.622.416,8.682,8.682,0,0,0,2.622-.416,3.745,3.745,0,0,1,3.017,1.712A8.62,8.62,0,0,1,10.75,27.419ZM17.8,23.774a5.75,5.75,0,0,0-4.556-2.25,13.008,13.008,0,0,1-2.5.416,13.079,13.079,0,0,1-2.5-.416A5.762,5.762,0,0,0,3.7,23.774,8.665,8.665,0,1,1,19.419,18.75,8.607,8.607,0,0,1,17.8,23.774Z" transform="translate(0 -8)" fill="#2756c3"/>
</svg>
